HIERARCHY
ROOT Hips
{
	OFFSET -0.001795 -0.223333 0.028219
	CHANNELS 6 Xposition Yposition Zposition Zrotation Yrotation Xrotation 
	JOINT LeftUpLeg
	{
		OFFSET 0.069520 -0.091406 -0.006815
		CHANNELS 3 Zrotation Yrotation Xrotation
		JOINT LeftLeg
		{
			OFFSET 0.034277 -0.375199 -0.004496
			CHANNELS 3 Zrotation Yrotation Xrotation
			JOINT LeftFoot
			{
				OFFSET -0.013596 -0.397961 -0.043693
				CHANNELS 3 Zrotation Yrotation Xrotation
				JOINT LeftToe
				{
					OFFSET 0.026358 -0.055791 0.119288
					CHANNELS 3 Zrotation Yrotation Xrotation
					End Site
					{
						OFFSET 0.000000 0.000000 0.000000
					}
				}
			}
		}
	}
	JOINT RightUpLeg
	{
		OFFSET -0.067670 -0.090522 -0.004320
		CHANNELS 3 Zrotation Yrotation Xrotation
		JOINT RightLeg
		{
			OFFSET -0.038290 -0.382569 -0.008850
			CHANNELS 3 Zrotation Yrotation Xrotation
			JOINT RightFoot
			{
				OFFSET 0.015774 -0.398415 -0.042312
				CHANNELS 3 Zrotation Yrotation Xrotation
				JOINT RightToe
				{
					OFFSET -0.025372 -0.048144 0.123348
					CHANNELS 3 Zrotation Yrotation Xrotation
					End Site
					{
						OFFSET 0.000000 0.000000 0.000000
					}
				}
			}
		}
	}
	JOINT Spine
	{
		OFFSET -0.002533 0.108963 -0.026696
		CHANNELS 3 Zrotation Yrotation Xrotation
		JOINT Spine1
		{
			OFFSET 0.005487 0.135180 0.001092
			CHANNELS 3 Zrotation Yrotation Xrotation
			JOINT Spine2
			{
				OFFSET 0.001457 0.052922 0.025425
				CHANNELS 3 Zrotation Yrotation Xrotation
				JOINT Neck
				{
					OFFSET -0.002778 0.213870 -0.042857
					CHANNELS 3 Zrotation Yrotation Xrotation
					JOINT Head
					{
						OFFSET 0.005152 0.064970 0.051349
						CHANNELS 3 Zrotation Yrotation Xrotation
						End Site
						{
							OFFSET 0.000000 0.000000 0.000000
						}
					}
				}
				JOINT LeftShoulder
				{
					OFFSET 0.078845 0.121749 -0.034090
					CHANNELS 3 Zrotation Yrotation Xrotation
					JOINT LeftArm
					{
						OFFSET 0.090977 0.030469 -0.008868
						CHANNELS 3 Zrotation Yrotation Xrotation
						JOINT LeftForeArm
						{
							OFFSET 0.259612 -0.012772 -0.027456
							CHANNELS 3 Zrotation Yrotation Xrotation
							JOINT LeftHand
							{
								OFFSET 0.249234 0.008986 -0.001171
								CHANNELS 3 Zrotation Yrotation Xrotation
								End Site
								{
									OFFSET 0.000000 0.000000 0.000000
								}
							}
						}
					}
				}
				JOINT RightShoulder
				{
					OFFSET -0.081759 0.118833 -0.038615
					CHANNELS 3 Zrotation Yrotation Xrotation
					JOINT RightArm
					{
						OFFSET -0.096012 0.032551 -0.009143
						CHANNELS 3 Zrotation Yrotation Xrotation
						JOINT RightForeArm
						{
							OFFSET -0.253742 -0.013329 -0.021401
							CHANNELS 3 Zrotation Yrotation Xrotation
							JOINT RightHand
							{
								OFFSET -0.255298 0.007772 -0.005559
								CHANNELS 3 Zrotation Yrotation Xrotation
								End Site
								{
									OFFSET 0.000000 0.000000 0.000000
								}
							}
						}
					}
				}
			}
		}
	}
}
MOTION
Frames: 12
Frame Time: 0.050000
0.000011 0.962570 -0.031120 -0.831214 -2.207007 -1.513880 3.537179 0.755861 11.906774 -2.512001 0.475449 -13.433271 2.290079 9.559616 18.542972 0.000000 0.000000 0.000000 -3.313070 -0.514477 8.786438 1.989859 -0.396860 -9.522407 2.197144 -3.951823 19.392592 0.000000 0.000000 0.000000 2.761307 -0.439595 6.726651 -0.426100 0.716403 -25.905724 -0.985560 2.642546 27.344867 3.979662 -0.393453 -27.240314 0.000000 0.000000 0.000000 -17.979809 -0.676620 -0.887931 -42.664628 -10.635438 -3.532107 1.353800 -10.138936 0.312693 0.000000 0.000000 0.000000 17.801478 -1.710364 -1.580897 43.244781 10.673818 -2.836754 -5.330078 9.998951 0.061973 0.000000 0.000000 0.000000 
-0.000099 0.962883 -0.031508 -0.861447 -2.059335 -1.573124 3.671860 0.768657 12.385930 -2.592269 0.479905 -13.918783 1.993647 9.227299 18.888747 0.000000 0.000000 0.000000 -3.104805 -0.559778 9.083433 1.532730 -0.401245 -10.023759 2.424973 -3.712577 19.861520 0.000000 0.000000 0.000000 2.584748 -0.433708 6.810778 -0.259104 0.698218 -26.486494 -0.963904 2.500767 27.802491 3.880998 -0.413970 -26.680433 0.000000 0.000000 0.000000 -15.991250 -0.434026 -0.824035 -38.724090 -11.633753 -3.058155 2.999747 -9.036298 0.155538 0.000000 0.000000 0.000000 15.275871 -2.030652 -1.567492 39.401130 11.576525 -2.456725 -5.852168 8.543235 0.036490 0.000000 0.000000 0.000000 
-0.000217 0.963265 -0.031788 -0.848571 -1.754613 -1.629713 3.649900 0.780839 12.678873 -2.340906 0.482903 -14.330323 1.734359 8.999129 19.365937 0.000000 0.000000 0.000000 -3.120098 -0.571736 9.170873 1.388667 -0.403981 -10.074241 2.632769 -3.499545 20.382001 0.000000 0.000000 0.000000 2.290220 -0.422744 6.928290 -0.016057 0.655558 -26.750968 -1.133129 1.877009 28.215903 3.667547 -0.394723 -26.481427 0.000000 0.000000 0.000000 -13.674295 0.433719 -0.985088 -34.827948 -12.911321 -2.577737 4.432227 -7.547380 0.049927 0.000000 0.000000 0.000000 12.412856 -2.293877 -1.562870 35.370213 12.387840 -2.104112 -5.642890 7.603683 0.039789 0.000000 0.000000 0.000000 
-0.000408 0.963629 -0.031941 -0.867237 -1.571751 -1.713300 3.769150 0.776546 12.919106 -2.289899 0.481378 -14.453643 1.415239 8.616860 19.564222 0.000000 0.000000 0.000000 -2.735969 -0.636571 9.450351 0.917562 -0.414251 -10.618865 2.763890 -3.380260 20.748369 0.000000 0.000000 0.000000 2.002999 -0.420237 7.202181 0.377954 0.594509 -27.519722 -1.144473 1.534133 28.721279 3.466506 -0.410057 -25.617357 0.000000 0.000000 0.000000 -11.438385 1.118587 -1.096987 -30.572041 -13.992103 -2.194277 5.812458 -6.169137 -0.017403 0.000000 0.000000 0.000000 9.551396 -2.632668 -1.536324 31.639577 12.615885 -1.953654 -5.472123 6.567025 0.047371 0.000000 0.000000 0.000000 
-0.000605 0.964147 -0.032055 -0.941649 -1.202067 -1.653018 3.838906 0.758990 12.991960 -2.152134 0.480506 -14.712474 1.265974 8.573011 20.086668 0.000000 0.000000 0.000000 -2.574009 -0.673349 9.603284 0.684402 -0.418274 -10.712442 2.799377 -3.421436 21.244586 0.000000 0.000000 0.000000 1.851417 -0.412383 7.201187 0.515414 0.576297 -27.846307 -1.294658 0.923801 29.092791 3.456635 -0.500062 -25.412899 0.000000 0.000000 0.000000 -9.128311 1.991466 -1.276036 -27.369408 -14.948669 -1.920278 7.143064 -4.807989 -0.043981 0.000000 0.000000 0.000000 7.060775 -3.121037 -1.598366 28.718352 13.006457 -1.781482 -5.821722 6.119370 0.034487 0.000000 0.000000 0.000000 
-0.000795 0.964461 -0.032078 -0.957384 -0.886622 -1.684439 3.659475 0.775721 13.094974 -2.005732 0.478867 -14.879951 0.960724 8.209473 20.169972 0.000000 0.000000 0.000000 -2.172754 -0.748683 9.922570 0.176102 -0.436138 -11.268405 2.723996 -3.593572 21.573477 0.000000 0.000000 0.000000 1.669312 -0.400773 7.193316 0.792033 0.536721 -28.278039 -1.474616 0.687982 29.262011 3.509032 -0.651028 -24.310629 0.000000 0.000000 0.000000 -6.977555 2.405657 -1.296486 -24.032948 -15.260731 -1.770463 8.904036 -4.156222 -0.081088 0.000000 0.000000 0.000000 4.714840 -3.675130 -1.648830 26.151706 13.000360 -1.704604 -6.676405 5.863833 0.012264 0.000000 0.000000 0.000000 
-0.000871 0.964783 -0.032084 -1.045774 -0.506366 -1.550764 3.619069 0.771937 13.201666 -1.699201 0.484167 -15.269901 0.924740 8.343352 20.753078 0.000000 0.000000 0.000000 -1.872108 -0.798197 10.025742 -0.227166 -0.453984 -11.681894 2.770233 -3.694051 22.326069 0.000000 0.000000 0.000000 1.413174 -0.383523 7.140960 0.982152 0.515691 -28.741737 -1.566722 0.006081 29.578449 3.286042 -0.616549 -24.182547 0.000000 0.000000 0.000000 -4.725849 3.773153 -1.670033 -21.190020 -15.557729 -1.667310 9.658364 -4.227497 -0.103964 0.000000 0.000000 0.000000 2.306144 -4.554550 -1.813044 23.677338 13.561899 -1.538557 -7.215062 5.836180 -0.011086 0.000000 0.000000 0.000000 
-0.000897 0.964942 -0.032047 -1.162272 -0.293604 -1.569285 3.557944 0.779362 13.330852 -1.474047 0.484872 -15.266007 0.806704 8.203387 20.708289 0.000000 0.000000 0.000000 -1.314301 -0.877559 10.180899 -0.678764 -0.465650 -11.937248 2.724544 -3.733673 22.365676 0.000000 0.000000 0.000000 1.307705 -0.376946 7.129406 1.275798 0.472549 -29.157826 -1.751102 -0.196955 29.862273 3.192259 -0.657364 -23.333033 0.000000 0.000000 0.000000 -2.607018 4.466631 -1.783689 -18.333266 -15.382818 -1.610511 10.856435 -4.656926 -0.169931 0.000000 0.000000 0.000000 -0.052359 -5.211635 -1.852679 21.743382 13.537141 -1.498759 -8.027360 6.179340 -0.052280 0.000000 0.000000 0.000000 
-0.000839 0.965584 -0.032101 -1.183698 -0.083722 -1.488856 3.450141 0.794235 13.492641 -1.420819 0.489427 -15.660225 0.870775 8.403452 21.083457 0.000000 0.000000 0.000000 -1.223928 -0.911650 10.398468 -0.752642 -0.481149 -12.229175 2.467389 -4.230452 22.791728 0.000000 0.000000 0.000000 1.232263 -0.377092 7.203895 1.430581 0.457115 -29.582424 -1.860214 -0.580408 30.083936 2.952322 -0.590610 -22.973781 0.000000 0.000000 0.000000 -1.117061 5.754556 -2.155072 -16.150965 -15.537225 -1.540271 12.072869 -5.693670 -0.282946 0.000000 0.000000 0.000000 -2.110371 -5.941622 -1.919690 20.013752 13.619273 -1.439207 -9.098675 7.054631 -0.138479 0.000000 0.000000 0.000000 
-0.000764 0.966247 -0.032292 -1.148801 -0.000062 -1.430378 3.291779 0.796863 13.260713 -1.195224 0.491348 -15.531740 0.754794 8.215555 20.904738 0.000000 0.000000 0.000000 -1.080309 -0.929593 10.402738 -0.966091 -0.476412 -12.106249 2.403807 -4.115181 22.161600 0.000000 0.000000 0.000000 1.199103 -0.372170 7.142730 1.831346 0.390623 -29.867146 -2.097387 -0.560706 30.148979 2.759476 -0.482181 -22.696648 0.000000 0.000000 0.000000 0.569783 6.320641 -2.225483 -13.969051 -15.331070 -1.483946 13.809487 -6.529460 -0.439855 0.000000 0.000000 0.000000 -4.316948 -6.541950 -1.918349 18.539207 13.829592 -1.376591 -10.542299 7.685343 -0.238784 0.000000 0.000000 0.000000 
-0.000750 0.967150 -0.032775 -1.014290 0.294875 -1.257592 3.041962 0.809885 13.138675 -0.893193 0.495636 -15.617737 0.610350 8.060690 20.921570 0.000000 0.000000 0.000000 -1.095241 -0.938536 10.457992 -1.057002 -0.484998 -12.225001 2.067796 -4.569240 22.103092 0.000000 0.000000 0.000000 1.075914 -0.358961 7.018791 1.845184 0.408546 -30.352250 -2.359232 -0.805568 30.347740 2.749866 -0.519404 -22.425791 0.000000 0.000000 0.000000 2.027438 7.259900 -2.435351 -11.712206 -15.736775 -1.399203 16.326668 -7.695463 -0.704597 0.000000 0.000000 0.000000 -6.271021 -7.152268 -1.923054 16.948942 14.048632 -1.313488 -12.485316 8.598000 -0.410718 0.000000 0.000000 0.000000 
-0.000871 0.968030 -0.033543 -1.074184 0.098057 -1.123591 2.786270 0.821980 12.760779 -0.523681 0.495733 -15.141563 0.383701 7.654180 20.650885 0.000000 0.000000 0.000000 -1.093172 -0.912037 10.214878 -1.005447 -0.476762 -12.091551 2.111854 -4.417136 21.719862 0.000000 0.000000 0.000000 0.949925 -0.358767 7.176149 2.059309 0.392352 -30.954675 -2.496001 -0.591463 30.559104 2.670327 -0.473797 -22.182909 0.000000 0.000000 0.000000 3.873252 7.856908 -2.472992 -9.966244 -16.195823 -1.340698 19.598103 -8.097945 -0.979780 0.000000 0.000000 0.000000 -7.719738 -7.595752 -1.925364 15.169654 14.811847 -1.224887 -15.278730 8.811169 -0.593575 0.000000 0.000000 0.000000 
